<svg id="Logo" xmlns="http://www.w3.org/2000/svg" viewBox="0 0 775.13 219.2"><defs><style>.cls-1{fill:none;stroke:#fff;stroke-miterlimit:10;stroke-width:8px;}.cls-2{fill:#fff;}</style></defs><polygon class="cls-1" points="97.91 212.28 7.99 160.36 7.99 56.53 97.91 108.45 97.91 212.28"/><polygon class="cls-1" points="97.91 108.64 97.91 212.28 187.82 160.36 187.82 56.53 97.91 4.62 7.99 56.53 97.91 108.64"/><polygon class="cls-2" points="156.57 74.62 129.12 90.44 129.16 194.23 156.57 178.41 156.57 74.62"/><polygon class="cls-2" points="93.03 69.63 120.46 53.77 138.5 64.21 111.05 80.03 93.03 69.63"/><path class="cls-2" d="M252.73,160.33H228.67V85.5h24.06Z"/><path class="cls-2" d="M253.39,74.84H228V56.65h25.38Z"/><path class="cls-2" d="M339.9,151.74q0,10.53-3,17.72a26.51,26.51,0,0,1-8.4,11.27,34.31,34.31,0,0,1-13,6,74.11,74.11,0,0,1-17.23,1.83,125.69,125.69,0,0,1-15.36-.93,117.51,117.51,0,0,1-13.09-2.27V166.6h2.92a74.44,74.44,0,0,0,10.72,3.16,51.45,51.45,0,0,0,11.31,1.44A39.05,39.05,0,0,0,305.56,170a14.4,14.4,0,0,0,6.36-3.5,12.57,12.57,0,0,0,3-5.46,30.05,30.05,0,0,0,.93-8v-1.4a35.63,35.63,0,0,1-9.58,5.6,31.76,31.76,0,0,1-11.72,2.07q-15.71,0-24.22-9.46T261.8,121a44.24,44.24,0,0,1,2.6-16,35.43,35.43,0,0,1,7.32-11.72A30.18,30.18,0,0,1,282.53,86a34.79,34.79,0,0,1,13.15-2.6,39.4,39.4,0,0,1,11,1.44,35.37,35.37,0,0,1,9,4l.87-3.33H339.9Zm-24.06-15V102.82a23.14,23.14,0,0,0-5-1.36,33.43,33.43,0,0,0-5.39-.5q-9.43,0-14.16,5.43t-4.72,15.16q0,10.8,4,15.06c2.69,2.84,6.66,4.27,11.94,4.27a22.42,22.42,0,0,0,7-1.14A26.22,26.22,0,0,0,315.84,136.74Z"/><path class="cls-2" d="M424.84,160.33H400.78v-8.26a71.17,71.17,0,0,1-12.17,7.7,30.5,30.5,0,0,1-13.18,2.63q-12.37,0-19.07-7.13t-6.69-21.06V85.5h24.06v37.12c0,3.77.12,6.92.37,9.43a16.35,16.35,0,0,0,1.7,6.23,7.62,7.62,0,0,0,3.83,3.59,18.06,18.06,0,0,0,7.16,1.14,23.51,23.51,0,0,0,6.8-1.14,28.84,28.84,0,0,0,7.19-3.33v-53h24.06Z"/><path class="cls-2" d="M483.26,152.4q-1.93,1.47-4.8,3.54a35.39,35.39,0,0,1-5.4,3.26,33.74,33.74,0,0,1-7.33,2.37,42.26,42.26,0,0,1-8.33.76q-10.66,0-17.86-6.59a21.88,21.88,0,0,1-7.19-16.86q0-8.2,3.66-13.4a24.52,24.52,0,0,1,10.4-8.19A58.56,58.56,0,0,1,462.93,113q9.87-1.26,20.46-1.87v-.39q0-6.21-5.06-8.57T463.4,99.83a42.52,42.52,0,0,0-12.66,2.1q-6.74,2.08-9.66,3.23h-2.2V87.1q3.8-1,12.36-2.37a108.86,108.86,0,0,1,17.16-1.36q20.46,0,29.55,6.29t9.1,19.76v50.91H483.26Zm0-11.64V125.22c-3.25.26-6.76.63-10.53,1.09a51.42,51.42,0,0,0-8.6,1.63,11.84,11.84,0,0,0-5.5,3.29,8.31,8.31,0,0,0-1.89,5.68,14.51,14.51,0,0,0,.4,3.78,5.61,5.61,0,0,0,2,2.79,9.75,9.75,0,0,0,3.67,2,25.54,25.54,0,0,0,6.66.63,19.63,19.63,0,0,0,7.3-1.46A22.82,22.82,0,0,0,483.26,140.76Z"/><path class="cls-2" d="M593.35,160.33H569.3V123.22a87.8,87.8,0,0,0-.47-9,18.87,18.87,0,0,0-1.6-6.63,7.94,7.94,0,0,0-3.9-3.6,18.1,18.1,0,0,0-7.16-1.14,21.87,21.87,0,0,0-6.63,1.07,35.93,35.93,0,0,0-7.3,3.4v53h-24V85.5h24v8.26a61.24,61.24,0,0,1,12.28-7.66,31.34,31.34,0,0,1,13.08-2.67q12.1,0,18.93,7.07t6.82,21.12Z"/><path class="cls-2" d="M649.81,152.4q-1.93,1.47-4.8,3.54a35.39,35.39,0,0,1-5.4,3.26,33.92,33.92,0,0,1-7.33,2.37,42.26,42.26,0,0,1-8.33.76q-10.66,0-17.86-6.59a21.86,21.86,0,0,1-7.2-16.86q0-8.2,3.67-13.4a24.52,24.52,0,0,1,10.4-8.19A58.56,58.56,0,0,1,629.48,113q9.87-1.26,20.46-1.87v-.39q0-6.21-5.06-8.57T630,99.83a42.52,42.52,0,0,0-12.66,2.1q-6.74,2.08-9.67,3.23h-2.19V87.1q3.8-1,12.36-2.37A108.67,108.67,0,0,1,635,83.37q20.44,0,29.55,6.29t9.1,19.76v50.91H649.81Zm0-11.64V125.22c-3.25.26-6.76.63-10.53,1.09a51.42,51.42,0,0,0-8.6,1.63,11.84,11.84,0,0,0-5.5,3.29,8.31,8.31,0,0,0-1.9,5.68,15,15,0,0,0,.4,3.78,5.7,5.7,0,0,0,2,2.79,9.75,9.75,0,0,0,3.67,2,25.54,25.54,0,0,0,6.66.63,19.67,19.67,0,0,0,7.3-1.46A23,23,0,0,0,649.81,140.76Z"/><path class="cls-2" d="M710.16,160.33H686.1V85.5h24.06Z"/><path class="cls-2" d="M710.82,74.84H685.43V56.65h25.39Z"/><path class="cls-2" d="M775.13,159.67a67.58,67.58,0,0,1-8.19,1.57,85.23,85.23,0,0,1-10.6.56q-14,0-20.82-5.66t-6.83-19.4v-35h-9.87V85.5h9.87V64.11h24V85.5h22.39v16.26H752.74v26.56q0,3.94.07,6.88a14.18,14.18,0,0,0,1.06,5.27,7.37,7.37,0,0,0,3.29,3.7,14,14,0,0,0,6.88,1.37,20.27,20.27,0,0,0,4.88-.8,19.7,19.7,0,0,0,4.22-1.47h2Z"/></svg>