<svg id="Logo" xmlns="http://www.w3.org/2000/svg" viewBox="0 0 767.15 207.66">
	<defs>
		<style>
      .cls-1 {
        fill: #3d788b;
      }

      .cls-2 {
        fill: #9ff;
      }

      .cls-3 {
        fill: #231f20;
      }
    </style>
	</defs>
	<polygon class="cls-1" points="89.92 207.66 0 155.74 0 51.91 89.92 103.83 89.92 207.66"/>
	<polygon class="cls-2" points="89.92 104.02 89.92 207.66 179.84 155.74 179.84 51.92 89.92 0 0 51.91 89.92 104.02"/>
	<polygon points="148.58 70 121.14 85.82 121.17 189.62 148.58 173.79 148.58 70"/>
	<polygon class="cls-1" points="85.04 65.01 112.47 49.15 130.51 59.59 103.06 75.41 85.04 65.01"/>
	<path class="cls-3" d="M244.74,155.71H220.69V80.88h24.06v74.83Z"/>
	<path class="cls-1" d="M245.41,70.22H220V52h25.39V70.22Z"/>
	<path class="cls-3" d="M331.91,147.12q0,10.53-3,17.73a26.44,26.44,0,0,1-8.4,11.26,34.35,34.35,0,0,1-13,6,74,74,0,0,1-17.23,1.83A125.52,125.52,0,0,1,274.9,183a119.09,119.09,0,0,1-13.09-2.27V162h2.93a74.47,74.47,0,0,0,10.71,3.17,51.82,51.82,0,0,0,11.31,1.43,39,39,0,0,0,10.81-1.23,14.35,14.35,0,0,0,6.35-3.5,12.55,12.55,0,0,0,3-5.46,30,30,0,0,0,.93-8V147a35.68,35.68,0,0,1-9.58,5.6,31.79,31.79,0,0,1-11.71,2.07q-15.71,0-24.23-9.46t-8.52-28.79a44.43,44.43,0,0,1,2.6-16,35.42,35.42,0,0,1,7.32-11.73,30.17,30.17,0,0,1,10.81-7.26,34.75,34.75,0,0,1,13.15-2.6,39.63,39.63,0,0,1,11,1.43,35.69,35.69,0,0,1,9,4l0.87-3.33h23.32v66.24Zm-24.06-15V98.21a23,23,0,0,0-5.05-1.37,32.93,32.93,0,0,0-5.39-.5q-9.44,0-14.16,5.43t-4.72,15.16q0,10.8,4,15.06t11.93,4.26a22.48,22.48,0,0,0,7-1.13A26.69,26.69,0,0,0,307.85,132.12Z"/>
	<path class="cls-3" d="M416.85,155.71H392.8v-8.26a71.32,71.32,0,0,1-12.18,7.7,30.39,30.39,0,0,1-13.18,2.63q-12.38,0-19.07-7.13t-6.69-21.06V80.88h24.06V118q0,5.66.37,9.43a16.41,16.41,0,0,0,1.7,6.23,7.65,7.65,0,0,0,3.83,3.6,18.18,18.18,0,0,0,7.16,1.13,23.58,23.58,0,0,0,6.8-1.13,29.26,29.26,0,0,0,7.2-3.33v-53h24.06v74.83Z"/>
	<path class="cls-3" d="M475.27,147.79q-1.93,1.47-4.8,3.53a34.87,34.87,0,0,1-5.4,3.27,34,34,0,0,1-7.33,2.37,42.19,42.19,0,0,1-8.33.77q-10.66,0-17.86-6.6a21.85,21.85,0,0,1-7.2-16.86q0-8.2,3.67-13.39a24.59,24.59,0,0,1,10.4-8.2,58.75,58.75,0,0,1,16.53-4.26q9.86-1.27,20.46-1.87v-0.4q0-6.2-5.06-8.56t-14.93-2.37a42.6,42.6,0,0,0-12.66,2.1q-6.73,2.1-9.66,3.23h-2.2V82.48q3.8-1,12.36-2.37a108.86,108.86,0,0,1,17.16-1.37q20.46,0,29.55,6.3t9.1,19.76v50.91H475.27v-7.93Zm0-11.65V120.6q-4.86.4-10.53,1.1a50.76,50.76,0,0,0-8.6,1.63,11.85,11.85,0,0,0-5.5,3.29,8.28,8.28,0,0,0-1.9,5.68,14.73,14.73,0,0,0,.4,3.79,5.68,5.68,0,0,0,2,2.79,9.71,9.71,0,0,0,3.67,2,25.52,25.52,0,0,0,6.66.63,19.74,19.74,0,0,0,7.3-1.46A22.78,22.78,0,0,0,475.27,136.14Z"/>
	<path class="cls-3" d="M585.37,155.71H561.31V118.6a87.61,87.61,0,0,0-.47-9,19,19,0,0,0-1.6-6.63,8,8,0,0,0-3.9-3.6,18.19,18.19,0,0,0-7.16-1.13,21.89,21.89,0,0,0-6.63,1.07,35.65,35.65,0,0,0-7.3,3.4v53H510.2V80.88h24.06v8.26a61.12,61.12,0,0,1,12.28-7.66,31.36,31.36,0,0,1,13.08-2.67q12.11,0,18.93,7.06T585.37,107v48.71Z"/>
	<path class="cls-3" d="M641.82,147.79q-1.93,1.47-4.8,3.53a34.87,34.87,0,0,1-5.4,3.27,34,34,0,0,1-7.33,2.37,42.19,42.19,0,0,1-8.33.77q-10.66,0-17.86-6.6a21.85,21.85,0,0,1-7.2-16.86q0-8.2,3.67-13.39a24.59,24.59,0,0,1,10.4-8.2,58.75,58.75,0,0,1,16.53-4.26q9.86-1.27,20.46-1.87v-0.4q0-6.2-5.06-8.56T622,95.21a42.6,42.6,0,0,0-12.66,2.1q-6.73,2.1-9.66,3.23h-2.2V82.48q3.8-1,12.36-2.37A108.86,108.86,0,0,1,627,78.75q20.46,0,29.55,6.3t9.1,19.76v50.91H641.82v-7.93Zm0-11.65V120.6q-4.86.4-10.53,1.1a50.76,50.76,0,0,0-8.6,1.63,11.85,11.85,0,0,0-5.5,3.29,8.28,8.28,0,0,0-1.9,5.68,14.73,14.73,0,0,0,.4,3.79,5.68,5.68,0,0,0,2,2.79,9.71,9.71,0,0,0,3.67,2,25.52,25.52,0,0,0,6.66.63,19.74,19.74,0,0,0,7.3-1.46A22.78,22.78,0,0,0,641.82,136.14Z"/>
	<path class="cls-3" d="M702.17,155.71H678.11V80.88h24.06v74.83Z"/>
	<path class="cls-1" d="M702.83,70.22H677.45V52h25.39V70.22Z"/>
	<path class="cls-3" d="M767.15,155.06a68.22,68.22,0,0,1-8.2,1.56,83.93,83.93,0,0,1-10.59.56q-14,0-20.82-5.66t-6.83-19.39v-35h-9.86V80.88h9.86V59.49h24.06V80.88h22.39V97.14H744.76V123.7q0,3.94.07,6.87a14.13,14.13,0,0,0,1.06,5.27,7.37,7.37,0,0,0,3.29,3.7,13.92,13.92,0,0,0,6.88,1.37,27.36,27.36,0,0,0,9.1-2.27h2v16.4Z"/>
</svg>